<svg xmlns="http://www.w3.org/2000/svg" viewBox="0 0 300 300" style="enable-background:new 0 0 300 300" xml:space="preserve">
  <path d="M250.81 187.14c10.08.27 21.21-3.4 32.72-14.1 0 0-9.18-15.48-26.1-22.62 9.56-3.19 18.77-10.45 25.93-24.44 0 0-13.92-11.41-32.26-12.33 7.89-6.27 14.07-16.24 16-31.84 0 0-16.98-5.96-34.53-.55 5.27-8.59 7.66-20.07 4.15-35.39 0 0-18 .21-32.64 11.29 2.02-9.88.34-21.48-8.21-34.67 0 0-16.84 6.35-26.8 21.78-1.48-9.97-7.03-20.3-19.57-29.78 0 0-13.65 11.73-17.74 29.63-4.8-8.86-13.55-16.67-28.57-21.29 0 0-8.82 15.69-6.54 33.91-7.55-6.69-18.43-11.03-34.13-10.23 0 0-2.92 17.76 5.46 34.1-9.38-3.7-21.1-4.06-35.57 2.06 0 0 3.33 17.69 16.79 30.18-10.08-.27-21.21 3.4-32.72 14.1 0 0 9.18 15.48 26.1 22.62-9.56 3.19-18.77 10.45-25.93 24.44 0 0 13.92 11.41 32.26 12.33-7.89 6.27-14.07 16.24-16 31.84 0 0 16.98 5.96 34.53.55-5.27 8.59-7.66 20.07-4.15 35.39 0 0 18-.21 32.64-11.29-2.02 9.88-.34 21.48 8.21 34.67 0 0 16.84-6.35 26.8-21.78 1.48 9.97 7.03 20.3 19.57 29.78 0 0 13.65-11.73 17.74-29.63 4.8 8.86 13.55 16.67 28.57 21.29 0 0 8.82-15.69 6.54-33.91 7.55 6.69 18.43 11.03 34.13 10.23 0 0 2.92-17.76-5.46-34.1 9.38 3.7 21.1 4.06 35.57-2.06 0 0-3.34-17.69-16.79-30.18zm-81.02 15.78s-4.26 9.14-5.99 21.19c-2.97-5.69-7.28-11.59-13.3-17.62 0 0-7.13 7.14-12.88 17.87-.85-6.37-2.88-13.39-6.48-21.1 0 0-9.14 4.27-18.21 12.39 1.38-6.27 1.87-13.56 1.13-22.05 0 0-10.05.88-21.35 5.41 3.45-5.42 6.4-12.1 8.6-20.33 0 0-9.75-2.61-21.91-2.22 5.09-3.92 10.15-9.19 15.04-16.16 0 0-8.27-5.78-19.83-9.58 6.12-1.94 12.68-5.16 19.66-10.04 0 0-5.79-8.26-15.36-15.78 6.42.27 13.68-.51 21.91-2.71 0 0-2.61-9.74-9.03-20.08 5.94 2.45 13.03 4.2 21.51 4.94 0 0 .88-10.05-1.62-21.96 4.74 4.33 10.81 8.4 18.53 12 0 0 4.26-9.14 5.99-21.19 2.97 5.69 7.28 11.59 13.3 17.62 0 0 7.13-7.14 12.88-17.87.85 6.37 2.88 13.39 6.48 21.1 0 0 9.14-4.27 18.21-12.39-1.38 6.27-1.87 13.56-1.13 22.05 0 0 10.05-.88 21.35-5.41-3.45 5.42-6.4 12.1-8.6 20.33 0 0 9.75 2.61 21.91 2.22-5.09 3.92-10.15 9.19-15.04 16.16 0 0 8.27 5.78 19.83 9.58-6.12 1.94-12.68 5.16-19.66 10.04 0 0 5.79 8.26 15.36 15.78-6.42-.27-13.68.51-21.91 2.71 0 0 2.61 9.74 9.03 20.08-5.94-2.45-13.03-4.2-21.51-4.94 0 0-.88 10.05 1.62 21.96-4.74-4.33-10.81-8.4-18.53-12z" style="fill:#30f981;stroke:#000;stroke-miterlimit:10"/>
  <circle cx="149.5" cy="150.5" r="82" style="fill:#ff4d4d;stroke:#000;stroke-miterlimit:10"/>
</svg>